<svg xmlns="http://www.w3.org/2000/svg" xmlns:xlink="http://www.w3.org/1999/xlink" viewBox="0 0 524.7 267.1"><defs><style>.cls-1{fill:none;}.cls-2{clip-path:url(#clip-path);}.cls-3{fill:#63666a;}.cls-4{fill:#326295;}.cls-5{font-size:100px;fill:#1b578c;font-family:HelveticaNeue-Medium, Helvetica Neue;font-weight:500;}</style><clipPath id="clip-path" transform="translate(-40.3 -41.09)"><rect class="cls-1" width="579" height="337"/></clipPath></defs><g id="Layer_2" data-name="Layer 2"><g id="Layer_1-2" data-name="Layer 1"><g class="cls-2"><path d="M45.35,223.42h5.28l13,21h.08v-21h4.76V252H63.23l-13-21h-.12v21H45.35Z" transform="translate(-40.3 -41.09)"/><path d="M91.11,247.38a2.38,2.38,0,0,0,.22,1.2.92.92,0,0,0,.86.36h.48a2.66,2.66,0,0,0,.64-.08V252a5.49,5.49,0,0,1-.62.18q-.39.11-.78.18a5.52,5.52,0,0,1-.8.12,6.21,6.21,0,0,1-.68,0,4.31,4.31,0,0,1-2.32-.56,2.73,2.73,0,0,1-1.2-2,8.09,8.09,0,0,1-3.34,1.92,13.19,13.19,0,0,1-3.82.6,9.09,9.09,0,0,1-2.68-.38A6.74,6.74,0,0,1,74.81,251a5.2,5.2,0,0,1-1.56-1.88,5.73,5.73,0,0,1-.58-2.66,6.11,6.11,0,0,1,.7-3.12,5.19,5.19,0,0,1,1.84-1.88,8.36,8.36,0,0,1,2.56-1c.94-.2,1.9-.35,2.86-.46s1.61-.27,2.36-.34a10.7,10.7,0,0,0,2-.34,3,3,0,0,0,1.36-.74,2,2,0,0,0,.5-1.5,2.36,2.36,0,0,0-.42-1.44,2.88,2.88,0,0,0-1-.86,4.62,4.62,0,0,0-1.38-.4,12.47,12.47,0,0,0-1.44-.1,5.74,5.74,0,0,0-3.16.8,3.1,3.1,0,0,0-1.4,2.48H73.43a6.88,6.88,0,0,1,1-3.32,6.67,6.67,0,0,1,2.14-2.12,8.94,8.94,0,0,1,2.94-1.12,17.72,17.72,0,0,1,3.36-.32,14.42,14.42,0,0,1,3,.32,8.79,8.79,0,0,1,2.66,1,5.83,5.83,0,0,1,1.9,1.86,5.11,5.11,0,0,1,.72,2.78Zm-4.56-5.76a5.46,5.46,0,0,1-2.56.82c-1,.1-2,.24-3,.42a10.59,10.59,0,0,0-1.4.34,4.21,4.21,0,0,0-1.2.6,2.68,2.68,0,0,0-.82,1,3.46,3.46,0,0,0-.3,1.5,1.91,1.91,0,0,0,.44,1.28,3.06,3.06,0,0,0,1.06.82,4.81,4.81,0,0,0,1.36.42,8.41,8.41,0,0,0,1.34.12,7.11,7.11,0,0,0,1.64-.2,5.44,5.44,0,0,0,1.66-.68,4.33,4.33,0,0,0,1.3-1.22,3.06,3.06,0,0,0,.52-1.82Z" transform="translate(-40.3 -41.09)"/><path d="M94,231.3h3.44v-6.2H102v6.2h4.12v3.4H102v11A10.93,10.93,0,0,0,102,247a2.08,2.08,0,0,0,.28.88,1.28,1.28,0,0,0,.66.54,3.22,3.22,0,0,0,1.2.18c.32,0,.64,0,1,0a4.54,4.54,0,0,0,1-.14v3.52l-1.48.16a12,12,0,0,1-1.48.08,10,10,0,0,1-2.9-.34,3.76,3.76,0,0,1-1.72-1,3.33,3.33,0,0,1-.84-1.66,11.55,11.55,0,0,1-.26-2.28V234.7H94Z" transform="translate(-40.3 -41.09)"/><path d="M109.47,223.42H114v4.32h-4.56Zm0,7.88H114V252h-4.56Z" transform="translate(-40.3 -41.09)"/><path d="M128.47,252.54a11.17,11.17,0,0,1-4.42-.82,9.25,9.25,0,0,1-3.28-2.26,9.42,9.42,0,0,1-2-3.44,14.05,14.05,0,0,1,0-8.76,9.5,9.5,0,0,1,2-3.44,9.38,9.38,0,0,1,3.28-2.26,12.32,12.32,0,0,1,8.84,0,9.56,9.56,0,0,1,3.28,2.26,9.79,9.79,0,0,1,2,3.44,14.05,14.05,0,0,1,0,8.76,9.71,9.71,0,0,1-2,3.44,9.43,9.43,0,0,1-3.28,2.26A11.24,11.24,0,0,1,128.47,252.54Zm0-3.6a5.21,5.21,0,0,0,2.64-.64,5.49,5.49,0,0,0,1.84-1.68,7.34,7.34,0,0,0,1.06-2.34,10.72,10.72,0,0,0,.34-2.66A10.86,10.86,0,0,0,134,239a7.14,7.14,0,0,0-1.06-2.34,5.76,5.76,0,0,0-1.84-1.66,5.32,5.32,0,0,0-2.64-.64,5.27,5.27,0,0,0-2.64.64,5.65,5.65,0,0,0-1.84,1.66,6.94,6.94,0,0,0-1.06,2.34,10.4,10.4,0,0,0-.34,2.64,10.27,10.27,0,0,0,.34,2.66,7.13,7.13,0,0,0,1.06,2.34,5.39,5.39,0,0,0,1.84,1.68A5.16,5.16,0,0,0,128.47,248.94Z" transform="translate(-40.3 -41.09)"/><path d="M142.71,231.3H147v3l.08.08a7.73,7.73,0,0,1,2.72-2.7,7.28,7.28,0,0,1,3.72-1,7.76,7.76,0,0,1,5.36,1.76,6.78,6.78,0,0,1,2,5.28V252h-4.56V239a5.69,5.69,0,0,0-1-3.54,3.79,3.79,0,0,0-3-1.1,4.92,4.92,0,0,0-2.08.42,4.43,4.43,0,0,0-1.56,1.16,5.54,5.54,0,0,0-1,1.74,6.25,6.25,0,0,0-.36,2.12V252h-4.56Z" transform="translate(-40.3 -41.09)"/><path d="M183,247.38a2.38,2.38,0,0,0,.22,1.2.92.92,0,0,0,.86.36h.48a2.66,2.66,0,0,0,.64-.08V252a5.49,5.49,0,0,1-.62.18q-.39.11-.78.18a5.74,5.74,0,0,1-.8.12,6.21,6.21,0,0,1-.68,0A4.31,4.31,0,0,1,180,252a2.73,2.73,0,0,1-1.2-2,8.09,8.09,0,0,1-3.34,1.92,13.19,13.19,0,0,1-3.82.6,9.09,9.09,0,0,1-2.68-.38,6.74,6.74,0,0,1-2.26-1.12,5.2,5.2,0,0,1-1.56-1.88,5.73,5.73,0,0,1-.58-2.66,6.11,6.11,0,0,1,.7-3.12,5.19,5.19,0,0,1,1.84-1.88,8.36,8.36,0,0,1,2.56-1c.94-.2,1.9-.35,2.86-.46s1.61-.27,2.36-.34a10.7,10.7,0,0,0,2-.34,3,3,0,0,0,1.36-.74,2,2,0,0,0,.5-1.5,2.36,2.36,0,0,0-.42-1.44,2.88,2.88,0,0,0-1-.86,4.7,4.7,0,0,0-1.38-.4,12.47,12.47,0,0,0-1.44-.1,5.74,5.74,0,0,0-3.16.8,3.1,3.1,0,0,0-1.4,2.48h-4.56a6.88,6.88,0,0,1,1-3.32,6.67,6.67,0,0,1,2.14-2.12,8.86,8.86,0,0,1,2.94-1.12,17.72,17.72,0,0,1,3.36-.32,14.42,14.42,0,0,1,3,.32,8.79,8.79,0,0,1,2.66,1,5.83,5.83,0,0,1,1.9,1.86,5.11,5.11,0,0,1,.72,2.78Zm-4.56-5.76a5.46,5.46,0,0,1-2.56.82c-1,.1-2,.24-3,.42a10.59,10.59,0,0,0-1.4.34,4.21,4.21,0,0,0-1.2.6,2.68,2.68,0,0,0-.82,1,3.46,3.46,0,0,0-.3,1.5,1.86,1.86,0,0,0,.44,1.28,3.06,3.06,0,0,0,1.06.82,4.81,4.81,0,0,0,1.36.42,8.41,8.41,0,0,0,1.34.12,7.11,7.11,0,0,0,1.64-.2,5.44,5.44,0,0,0,1.66-.68,4.33,4.33,0,0,0,1.3-1.22,3.13,3.13,0,0,0,.52-1.82Z" transform="translate(-40.3 -41.09)"/><path d="M188,223.42h4.56V252H188Z" transform="translate(-40.3 -41.09)"/><path d="M228.59,232.5a10.9,10.9,0,0,0-.88-2.28,6.26,6.26,0,0,0-3.5-3,8.17,8.17,0,0,0-2.74-.42,8,8,0,0,0-3.94.92,7.79,7.79,0,0,0-2.7,2.46,11,11,0,0,0-1.54,3.5,16.25,16.25,0,0,0,0,8,10.78,10.78,0,0,0,1.54,3.5,7.61,7.61,0,0,0,2.7,2.46,7.92,7.92,0,0,0,3.94.92,7.08,7.08,0,0,0,3-.58,6.6,6.6,0,0,0,2.2-1.6,7.61,7.61,0,0,0,1.44-2.38,11.76,11.76,0,0,0,.68-2.92h4.88a13.73,13.73,0,0,1-1.1,4.68,11.49,11.49,0,0,1-2.54,3.66,11.2,11.2,0,0,1-3.76,2.38,13,13,0,0,1-4.76.84,13.39,13.39,0,0,1-5.74-1.18,12.45,12.45,0,0,1-4.3-3.22,14.11,14.11,0,0,1-2.7-4.76,18.24,18.24,0,0,1,0-11.56,14.21,14.21,0,0,1,2.7-4.76,12.75,12.75,0,0,1,4.3-3.24,13.25,13.25,0,0,1,5.74-1.2,15.16,15.16,0,0,1,4.52.66,11.72,11.72,0,0,1,3.74,1.92,10,10,0,0,1,2.62,3.06,10.8,10.8,0,0,1,1.24,4.12Z" transform="translate(-40.3 -41.09)"/><path d="M241.11,242.82a7.8,7.8,0,0,0,.34,2.32,5.47,5.47,0,0,0,1,2,4.79,4.79,0,0,0,1.72,1.34,5.57,5.57,0,0,0,2.48.5,5.45,5.45,0,0,0,3.22-.86,5.07,5.07,0,0,0,1.82-2.58H256a8.57,8.57,0,0,1-3.36,5.22,9.11,9.11,0,0,1-2.78,1.36,11.09,11.09,0,0,1-3.22.46,10.81,10.81,0,0,1-4.32-.8,8.77,8.77,0,0,1-3.18-2.24,9.4,9.4,0,0,1-2-3.44,14,14,0,0,1-.66-4.4,12.39,12.39,0,0,1,.7-4.18,10.52,10.52,0,0,1,2-3.48,9.38,9.38,0,0,1,7.3-3.26,9.31,9.31,0,0,1,4.38,1,9.71,9.71,0,0,1,3.22,2.7,11.08,11.08,0,0,1,1.86,3.86,12.12,12.12,0,0,1,.3,4.5Zm10.64-3a7.74,7.74,0,0,0-.46-2.08,5.83,5.83,0,0,0-1-1.74,5.34,5.34,0,0,0-1.6-1.2,4.83,4.83,0,0,0-2.1-.46,5.47,5.47,0,0,0-2.18.42,4.9,4.9,0,0,0-1.68,1.16,5.84,5.84,0,0,0-1.12,1.74,6,6,0,0,0-.46,2.16Z" transform="translate(-40.3 -41.09)"/><path d="M259.79,231.3h4.32v3l.08.08a7.73,7.73,0,0,1,2.72-2.7,7.28,7.28,0,0,1,3.72-1A7.76,7.76,0,0,1,276,232.5a6.78,6.78,0,0,1,2,5.28V252h-4.56V239a5.69,5.69,0,0,0-1-3.54,3.79,3.79,0,0,0-3-1.1,4.92,4.92,0,0,0-2.08.42,4.43,4.43,0,0,0-1.56,1.16,5.54,5.54,0,0,0-1,1.74,6.25,6.25,0,0,0-.36,2.12V252h-4.56Z" transform="translate(-40.3 -41.09)"/><path d="M280.67,231.3h3.44v-6.2h4.56v6.2h4.12v3.4h-4.12v11c0,.48,0,.9.05,1.24a2.23,2.23,0,0,0,.29.88,1.28,1.28,0,0,0,.66.54,3.22,3.22,0,0,0,1.2.18c.32,0,.64,0,1,0a4.74,4.74,0,0,0,1-.14v3.52l-1.49.16a11.75,11.75,0,0,1-1.47.08,9.92,9.92,0,0,1-2.9-.34,3.76,3.76,0,0,1-1.72-1,3.33,3.33,0,0,1-.84-1.66,11.55,11.55,0,0,1-.26-2.28V234.7h-3.44Z" transform="translate(-40.3 -41.09)"/><path d="M299.62,242.82a8.14,8.14,0,0,0,.34,2.32,5.8,5.8,0,0,0,1,2,4.91,4.91,0,0,0,1.73,1.34,5.54,5.54,0,0,0,2.48.5,5.45,5.45,0,0,0,3.22-.86,5,5,0,0,0,1.81-2.58h4.32a8.62,8.62,0,0,1-3.35,5.22,9.11,9.11,0,0,1-2.78,1.36,11.14,11.14,0,0,1-3.22.46,10.81,10.81,0,0,1-4.32-.8,8.77,8.77,0,0,1-3.18-2.24,9.57,9.57,0,0,1-2-3.44,14.25,14.25,0,0,1-.66-4.4,12.4,12.4,0,0,1,.71-4.18,10.52,10.52,0,0,1,2-3.48,9.38,9.38,0,0,1,7.29-3.26,9.32,9.32,0,0,1,4.39,1,9.71,9.71,0,0,1,3.22,2.7,11.08,11.08,0,0,1,1.86,3.86,12.12,12.12,0,0,1,.3,4.5Zm10.65-3a7.39,7.39,0,0,0-.47-2.08,5.61,5.61,0,0,0-1-1.74,5.34,5.34,0,0,0-1.6-1.2,4.84,4.84,0,0,0-2.11-.46,5.54,5.54,0,0,0-2.18.42,5,5,0,0,0-1.67,1.16,6.07,6.07,0,0,0-1.13,1.74,6.18,6.18,0,0,0-.46,2.16Z" transform="translate(-40.3 -41.09)"/><path d="M318.3,231.3h4.29v4h.08a4.56,4.56,0,0,1,.78-1.64,7.4,7.4,0,0,1,1.4-1.46,7,7,0,0,1,1.82-1.06,5.53,5.53,0,0,1,2-.4c.53,0,.9,0,1.09,0l.63.08v4.4l-1-.14a8.35,8.35,0,0,0-1-.06,5.28,5.28,0,0,0-2.17.46,5,5,0,0,0-1.78,1.36,6.74,6.74,0,0,0-1.21,2.22,9.75,9.75,0,0,0-.43,3V252H318.3Z" transform="translate(-40.3 -41.09)"/><path d="M341.46,231.3h3.41v-1.72a8.87,8.87,0,0,1,.48-3.18,4.56,4.56,0,0,1,1.27-1.88,4.33,4.33,0,0,1,1.83-.88,10.46,10.46,0,0,1,2.13-.22,13.5,13.5,0,0,1,3.21.28v3.56a6.8,6.8,0,0,0-.94-.18,10.18,10.18,0,0,0-1.18-.06,2.85,2.85,0,0,0-1.59.44,1.94,1.94,0,0,0-.66,1.72v2.12h3.88v3.4h-3.88V252h-4.55V234.7h-3.41Z" transform="translate(-40.3 -41.09)"/><path d="M365.58,252.54a11.24,11.24,0,0,1-4.42-.82,9.43,9.43,0,0,1-3.28-2.26,9.71,9.71,0,0,1-2-3.44,14.05,14.05,0,0,1,0-8.76,9.79,9.79,0,0,1,2-3.44,9.56,9.56,0,0,1,3.28-2.26,12.32,12.32,0,0,1,8.84,0,9.51,9.51,0,0,1,3.29,2.26,9.63,9.63,0,0,1,2,3.44,14.05,14.05,0,0,1,0,8.76,9.54,9.54,0,0,1-2,3.44,9.38,9.38,0,0,1-3.29,2.26A11.17,11.17,0,0,1,365.58,252.54Zm0-3.6a5.16,5.16,0,0,0,2.64-.64,5.39,5.39,0,0,0,1.84-1.68,7.13,7.13,0,0,0,1.06-2.34,10.27,10.27,0,0,0,.34-2.66,10.4,10.4,0,0,0-.34-2.64,6.94,6.94,0,0,0-1.06-2.34,5.65,5.65,0,0,0-1.84-1.66,5.74,5.74,0,0,0-5.27,0,5.69,5.69,0,0,0-1.85,1.66A7.14,7.14,0,0,0,360,239a10.85,10.85,0,0,0-.33,2.64,10.71,10.71,0,0,0,.33,2.66,7.34,7.34,0,0,0,1.06,2.34A5.43,5.43,0,0,0,363,248.3,5.15,5.15,0,0,0,365.58,248.94Z" transform="translate(-40.3 -41.09)"/><path d="M379.82,231.3h4.28v4h.08a4.92,4.92,0,0,1,.78-1.64,8,8,0,0,1,1.4-1.46,7.35,7.35,0,0,1,1.82-1.06,5.61,5.61,0,0,1,2-.4c.54,0,.9,0,1.1,0l.62.08v4.4l-1-.14a8.18,8.18,0,0,0-1-.06,5.36,5.36,0,0,0-2.18.46,5.07,5.07,0,0,0-1.78,1.36,6.91,6.91,0,0,0-1.2,2.22,9.73,9.73,0,0,0-.44,3V252h-4.56Z" transform="translate(-40.3 -41.09)"/><path d="M45.55,271.42H59.43a10,10,0,0,1,6.16,1.76,6.28,6.28,0,0,1,2.32,5.32,6.4,6.4,0,0,1-1.06,3.7,6.84,6.84,0,0,1-3,2.38v.08a6.29,6.29,0,0,1,4,2.5A8.34,8.34,0,0,1,69.19,292a8.17,8.17,0,0,1-.6,3.14,6.34,6.34,0,0,1-1.88,2.52,9.38,9.38,0,0,1-3.28,1.68,15.94,15.94,0,0,1-4.76.62H45.55Zm5,12h8.16a4.47,4.47,0,0,0,3-1,3.64,3.64,0,0,0,1.2-2.94,3.73,3.73,0,0,0-1.08-3,4.87,4.87,0,0,0-3.12-.88H50.55Zm0,12.52h8.84a5,5,0,0,0,3.54-1.18,4.34,4.34,0,0,0,1.26-3.34,4.18,4.18,0,0,0-1.26-3.26A5.09,5.09,0,0,0,59.39,287H50.55Z" transform="translate(-40.3 -41.09)"/><path d="M73.19,271.42h4.56v4.32H73.19Zm0,7.88h4.56V300H73.19Z" transform="translate(-40.3 -41.09)"/><path d="M92.19,300.54a11.2,11.2,0,0,1-4.42-.82,9.25,9.25,0,0,1-3.28-2.26,9.56,9.56,0,0,1-2-3.44,14.05,14.05,0,0,1,0-8.76,9.65,9.65,0,0,1,2-3.44,9.38,9.38,0,0,1,3.28-2.26,12.32,12.32,0,0,1,8.84,0,9.56,9.56,0,0,1,3.28,2.26,9.79,9.79,0,0,1,2,3.44,14.05,14.05,0,0,1,0,8.76,9.71,9.71,0,0,1-2,3.44,9.43,9.43,0,0,1-3.28,2.26A11.24,11.24,0,0,1,92.19,300.54Zm0-3.6a5.21,5.21,0,0,0,2.64-.64,5.49,5.49,0,0,0,1.84-1.68,7.34,7.34,0,0,0,1.06-2.34,10.27,10.27,0,0,0,.34-2.66,10.4,10.4,0,0,0-.34-2.64,7.14,7.14,0,0,0-1.06-2.34A5.76,5.76,0,0,0,94.83,283a5.32,5.32,0,0,0-2.64-.64,5.27,5.27,0,0,0-2.64.64,5.65,5.65,0,0,0-1.84,1.66A7.14,7.14,0,0,0,86.65,287a10.4,10.4,0,0,0-.34,2.64,10.27,10.27,0,0,0,.34,2.66,7.34,7.34,0,0,0,1.06,2.34,5.39,5.39,0,0,0,1.84,1.68A5.16,5.16,0,0,0,92.19,296.94Z" transform="translate(-40.3 -41.09)"/><path d="M104.35,279.3h3.44v-6.2h4.56v6.2h4.12v3.4h-4.12v11a10.93,10.93,0,0,0,.06,1.24,2.08,2.08,0,0,0,.28.88,1.28,1.28,0,0,0,.66.54,3.22,3.22,0,0,0,1.2.18c.32,0,.64,0,1,0a4.54,4.54,0,0,0,1-.14v3.52l-1.48.16a12,12,0,0,1-1.48.08,10,10,0,0,1-2.9-.34,3.81,3.81,0,0,1-1.72-1,3.33,3.33,0,0,1-.84-1.66,11.55,11.55,0,0,1-.26-2.28V282.7h-3.44Z" transform="translate(-40.3 -41.09)"/><path d="M123.31,290.82a7.8,7.8,0,0,0,.34,2.32,5.63,5.63,0,0,0,1,2,4.79,4.79,0,0,0,1.72,1.34,5.57,5.57,0,0,0,2.48.5,5.45,5.45,0,0,0,3.22-.86,5.07,5.07,0,0,0,1.82-2.58h4.32a8.57,8.57,0,0,1-3.36,5.22,9.11,9.11,0,0,1-2.78,1.36,11.09,11.09,0,0,1-3.22.46,10.81,10.81,0,0,1-4.32-.8,8.77,8.77,0,0,1-3.18-2.24,9.4,9.4,0,0,1-2-3.44,14,14,0,0,1-.66-4.4,12.39,12.39,0,0,1,.7-4.18,10.52,10.52,0,0,1,2-3.48,9.38,9.38,0,0,1,7.3-3.26,9.28,9.28,0,0,1,4.38,1,9.71,9.71,0,0,1,3.22,2.7,11.08,11.08,0,0,1,1.86,3.86,12.12,12.12,0,0,1,.3,4.5Zm10.64-3a7.74,7.74,0,0,0-.46-2.08,5.83,5.83,0,0,0-1-1.74,5.34,5.34,0,0,0-1.6-1.2,4.83,4.83,0,0,0-2.1-.46,5.47,5.47,0,0,0-2.18.42,4.9,4.9,0,0,0-1.68,1.16,5.84,5.84,0,0,0-1.12,1.74,6,6,0,0,0-.46,2.16Z" transform="translate(-40.3 -41.09)"/><path d="M156,286.22a4.31,4.31,0,0,0-1.54-2.9,5,5,0,0,0-3.18-1,6.5,6.5,0,0,0-1.88.3,4.51,4.51,0,0,0-1.84,1.12,6.29,6.29,0,0,0-1.4,2.28,10.74,10.74,0,0,0-.56,3.82,11.12,11.12,0,0,0,.3,2.56,6.88,6.88,0,0,0,1,2.28,5.07,5.07,0,0,0,1.7,1.62,4.76,4.76,0,0,0,2.52.62,4.59,4.59,0,0,0,3.3-1.24,5.8,5.8,0,0,0,1.62-3.48h4.56a10,10,0,0,1-3.06,6.18,9.34,9.34,0,0,1-6.42,2.14,10.51,10.51,0,0,1-4.3-.82,9,9,0,0,1-3.14-2.24,9.33,9.33,0,0,1-1.94-3.38,13.18,13.18,0,0,1-.66-4.24,14.41,14.41,0,0,1,.64-4.36,9.78,9.78,0,0,1,1.92-3.54,9,9,0,0,1,3.18-2.36,10.75,10.75,0,0,1,4.46-.86,12.72,12.72,0,0,1,3.42.46,9.15,9.15,0,0,1,2.88,1.38,7.54,7.54,0,0,1,2.06,2.32,8.07,8.07,0,0,1,1,3.32Z" transform="translate(-40.3 -41.09)"/><path d="M164.23,271.42h4.56V282h.08a6.67,6.67,0,0,1,2.5-2.34,7.43,7.43,0,0,1,3.7-.94,7.76,7.76,0,0,1,5.36,1.76,6.78,6.78,0,0,1,2,5.28V300h-4.56V287a5.69,5.69,0,0,0-1-3.54,3.79,3.79,0,0,0-3-1.1,4.92,4.92,0,0,0-2.08.42,4.43,4.43,0,0,0-1.56,1.16,5.54,5.54,0,0,0-1,1.74,6.25,6.25,0,0,0-.36,2.12V300h-4.56Z" transform="translate(-40.3 -41.09)"/><path d="M187.19,279.3h4.32v3l.08.08a7.73,7.73,0,0,1,2.72-2.7,7.28,7.28,0,0,1,3.72-1,7.76,7.76,0,0,1,5.36,1.76,6.78,6.78,0,0,1,2,5.28V300h-4.56V287a5.69,5.69,0,0,0-1-3.54,3.79,3.79,0,0,0-3-1.1,4.92,4.92,0,0,0-2.08.42,4.43,4.43,0,0,0-1.56,1.16,5.54,5.54,0,0,0-1,1.74,6.25,6.25,0,0,0-.36,2.12V300h-4.56Z" transform="translate(-40.3 -41.09)"/><path d="M219.63,300.54a11.17,11.17,0,0,1-4.42-.82,9.25,9.25,0,0,1-3.28-2.26,9.42,9.42,0,0,1-2-3.44,14.05,14.05,0,0,1,0-8.76,9.5,9.5,0,0,1,2-3.44,9.38,9.38,0,0,1,3.28-2.26,12.32,12.32,0,0,1,8.84,0,9.56,9.56,0,0,1,3.28,2.26,9.79,9.79,0,0,1,2,3.44,14.05,14.05,0,0,1,0,8.76,9.71,9.71,0,0,1-2,3.44,9.43,9.43,0,0,1-3.28,2.26A11.24,11.24,0,0,1,219.63,300.54Zm0-3.6a5.21,5.21,0,0,0,2.64-.64,5.49,5.49,0,0,0,1.84-1.68,7.34,7.34,0,0,0,1.06-2.34,10.72,10.72,0,0,0,.34-2.66,10.86,10.86,0,0,0-.34-2.64,7.14,7.14,0,0,0-1.06-2.34,5.76,5.76,0,0,0-1.84-1.66,5.32,5.32,0,0,0-2.64-.64A5.27,5.27,0,0,0,217,283a5.65,5.65,0,0,0-1.84,1.66,6.94,6.94,0,0,0-1.06,2.34,10.4,10.4,0,0,0-.34,2.64,10.27,10.27,0,0,0,.34,2.66,7.13,7.13,0,0,0,1.06,2.34A5.39,5.39,0,0,0,217,296.3,5.16,5.16,0,0,0,219.63,296.94Z" transform="translate(-40.3 -41.09)"/><path d="M234,271.42h4.56V300H234Z" transform="translate(-40.3 -41.09)"/><path d="M253,300.54a11.17,11.17,0,0,1-4.42-.82,9.25,9.25,0,0,1-3.28-2.26,9.42,9.42,0,0,1-2-3.44,14.05,14.05,0,0,1,0-8.76,9.5,9.5,0,0,1,2-3.44,9.38,9.38,0,0,1,3.28-2.26,12.32,12.32,0,0,1,8.84,0,9.56,9.56,0,0,1,3.28,2.26,9.79,9.79,0,0,1,2,3.44,14.05,14.05,0,0,1,0,8.76,9.71,9.71,0,0,1-2,3.44,9.43,9.43,0,0,1-3.28,2.26A11.24,11.24,0,0,1,253,300.54Zm0-3.6a5.21,5.21,0,0,0,2.64-.64,5.49,5.49,0,0,0,1.84-1.68,7.34,7.34,0,0,0,1.06-2.34,10.72,10.72,0,0,0,.34-2.66,10.86,10.86,0,0,0-.34-2.64,7.14,7.14,0,0,0-1.06-2.34,5.76,5.76,0,0,0-1.84-1.66,5.32,5.32,0,0,0-2.64-.64,5.27,5.27,0,0,0-2.64.64,5.65,5.65,0,0,0-1.84,1.66,6.94,6.94,0,0,0-1.06,2.34,10.4,10.4,0,0,0-.34,2.64,10.27,10.27,0,0,0,.34,2.66,7.13,7.13,0,0,0,1.06,2.34,5.39,5.39,0,0,0,1.84,1.68A5.16,5.16,0,0,0,253,296.94Z" transform="translate(-40.3 -41.09)"/><path d="M286.35,298.9c0,3.12-.88,5.45-2.62,7s-4.26,2.3-7.54,2.3a15.28,15.28,0,0,1-3.14-.32,9,9,0,0,1-2.88-1.08,6.72,6.72,0,0,1-2.18-2,6,6,0,0,1-1-3h4.56a3.61,3.61,0,0,0,.68,1.56,3.42,3.42,0,0,0,1.14.94,4.08,4.08,0,0,0,1.46.44,12.86,12.86,0,0,0,1.68.1,5.32,5.32,0,0,0,4-1.36,5.51,5.51,0,0,0,1.28-3.92v-3.16h-.08a7,7,0,0,1-2.62,2.68,7,7,0,0,1-3.58,1,9.34,9.34,0,0,1-4.22-.86,8,8,0,0,1-2.88-2.36,9.67,9.67,0,0,1-1.66-3.46,16.11,16.11,0,0,1-.52-4.2,12.17,12.17,0,0,1,.64-4,10,10,0,0,1,1.84-3.3,8.76,8.76,0,0,1,6.88-3.1,8.06,8.06,0,0,1,3.6.82,5.63,5.63,0,0,1,2.52,2.58h.08V279.3h4.56Zm-10.12-2.52a5,5,0,0,0,2.58-.62,5.09,5.09,0,0,0,1.72-1.64,7.19,7.19,0,0,0,1-2.32,11.57,11.57,0,0,0,.3-2.62,10.38,10.38,0,0,0-.32-2.56,7.1,7.1,0,0,0-1-2.2,4.85,4.85,0,0,0-1.72-1.52,5.44,5.44,0,0,0-2.54-.56,4.83,4.83,0,0,0-2.56.64,5,5,0,0,0-1.68,1.66,7,7,0,0,0-.92,2.32,12.06,12.06,0,0,0-.28,2.58,9.47,9.47,0,0,0,.32,2.5,6.77,6.77,0,0,0,1,2.18,5.23,5.23,0,0,0,1.68,1.56A4.77,4.77,0,0,0,276.23,296.38Z" transform="translate(-40.3 -41.09)"/><path d="M288.67,279.3h5l5.4,15.44h.08l5.24-15.44h4.76l-8,21.8c-.38.94-.74,1.83-1.1,2.68a9.39,9.39,0,0,1-1.32,2.26,5.58,5.58,0,0,1-1.94,1.56,6.59,6.59,0,0,1-3,.58,20.72,20.72,0,0,1-3.16-.24V304.1l1.08.18a5.35,5.35,0,0,0,1.08.1,3.6,3.6,0,0,0,1.32-.2,2.15,2.15,0,0,0,.86-.58,3.67,3.67,0,0,0,.58-.9,9,9,0,0,0,.44-1.2l.52-1.6Z" transform="translate(-40.3 -41.09)"/><path d="M323.47,271.42h5V300h-5Z" transform="translate(-40.3 -41.09)"/><path d="M334,279.3h4.32v3l.08.08a7.73,7.73,0,0,1,2.72-2.7,7.28,7.28,0,0,1,3.72-1,7.76,7.76,0,0,1,5.36,1.76,6.78,6.78,0,0,1,2,5.28V300h-4.56V287a5.69,5.69,0,0,0-1-3.54,3.79,3.79,0,0,0-3-1.1,4.92,4.92,0,0,0-2.08.42,4.43,4.43,0,0,0-1.56,1.16,5.54,5.54,0,0,0-1,1.74,6.25,6.25,0,0,0-.36,2.12V300H334Z" transform="translate(-40.3 -41.09)"/><path d="M354.87,279.3h3.4v-1.72a8.87,8.87,0,0,1,.48-3.18,4.48,4.48,0,0,1,1.28-1.88,4.24,4.24,0,0,1,1.82-.88,10.56,10.56,0,0,1,2.14-.22,13.46,13.46,0,0,1,3.2.28v3.56a6.8,6.8,0,0,0-.94-.18,10.18,10.18,0,0,0-1.18-.06,2.79,2.79,0,0,0-1.58.44,1.92,1.92,0,0,0-.66,1.72v2.12h3.88v3.4h-3.88V300h-4.56V282.7h-3.4Z" transform="translate(-40.3 -41.09)"/><path d="M379,300.54a11.24,11.24,0,0,1-4.42-.82,9.3,9.3,0,0,1-3.27-2.26,9.42,9.42,0,0,1-2-3.44,13.86,13.86,0,0,1,0-8.76,9.33,9.33,0,0,1,5.31-5.7,12.32,12.32,0,0,1,8.84,0,9.51,9.51,0,0,1,3.29,2.26,9.63,9.63,0,0,1,2,3.44,14.05,14.05,0,0,1,0,8.76,9.54,9.54,0,0,1-2,3.44,9.38,9.38,0,0,1-3.29,2.26A11.17,11.17,0,0,1,379,300.54Zm0-3.6a5.16,5.16,0,0,0,2.64-.64,5.39,5.39,0,0,0,1.84-1.68,7.15,7.15,0,0,0,1.07-2.34,10.72,10.72,0,0,0,.34-2.66,10.86,10.86,0,0,0-.34-2.64,7,7,0,0,0-1.07-2.34,5.65,5.65,0,0,0-1.84-1.66,5.74,5.74,0,0,0-5.27,0,5.69,5.69,0,0,0-1.85,1.66,7.13,7.13,0,0,0-1.05,2.34,10.4,10.4,0,0,0-.34,2.64,10.27,10.27,0,0,0,.34,2.66,7.32,7.32,0,0,0,1.05,2.34,5.43,5.43,0,0,0,1.85,1.68A5.15,5.15,0,0,0,379,296.94Z" transform="translate(-40.3 -41.09)"/><path d="M393.22,279.3h4.28v4h.08a4.92,4.92,0,0,1,.78-1.64,8,8,0,0,1,1.4-1.46,7.35,7.35,0,0,1,1.82-1.06,5.61,5.61,0,0,1,2-.4c.54,0,.9,0,1.1,0l.62.08v4.4l-1-.14a8.18,8.18,0,0,0-1-.06,5.36,5.36,0,0,0-2.18.46,5.07,5.07,0,0,0-1.78,1.36,6.91,6.91,0,0,0-1.2,2.22,9.73,9.73,0,0,0-.44,3V300h-4.56Z" transform="translate(-40.3 -41.09)"/><path d="M407.3,279.3h4.32v2.88h.12a13,13,0,0,1,1.12-1.4,6.61,6.61,0,0,1,1.34-1.08,7.29,7.29,0,0,1,1.7-.7,8.62,8.62,0,0,1,2.2-.26,7.47,7.47,0,0,1,3.5.84,4.75,4.75,0,0,1,2.3,2.6,9.52,9.52,0,0,1,2.68-2.52,7.27,7.27,0,0,1,3.8-.92,7.49,7.49,0,0,1,5.1,1.6c1.22,1.07,1.82,2.86,1.82,5.36V300h-4.56V287.9c0-.82,0-1.58-.08-2.26a4.47,4.47,0,0,0-.46-1.76,2.62,2.62,0,0,0-1.14-1.14,4.57,4.57,0,0,0-2.08-.4,3.88,3.88,0,0,0-3.36,1.44,6.91,6.91,0,0,0-1,4.08V300H420V286.7a5.64,5.64,0,0,0-.78-3.26,3.29,3.29,0,0,0-2.86-1.1,4.22,4.22,0,0,0-1.7.36,4.42,4.42,0,0,0-1.44,1,5.55,5.55,0,0,0-1,1.68,6.49,6.49,0,0,0-.38,2.28V300H407.3Z" transform="translate(-40.3 -41.09)"/><path d="M459.42,295.38a2.5,2.5,0,0,0,.22,1.2.94.94,0,0,0,.86.36H461a2.6,2.6,0,0,0,.64-.08V300a4.93,4.93,0,0,1-.62.18q-.37.1-.78.18a5.32,5.32,0,0,1-.8.12,6,6,0,0,1-.68,0,4.36,4.36,0,0,1-2.32-.56,2.79,2.79,0,0,1-1.2-2,8,8,0,0,1-3.34,1.92,13.14,13.14,0,0,1-3.82.6,9.19,9.19,0,0,1-2.68-.38,6.93,6.93,0,0,1-2.26-1.12,5.41,5.41,0,0,1-1.56-1.88,5.86,5.86,0,0,1-.58-2.66,6.21,6.21,0,0,1,.7-3.12,5.27,5.27,0,0,1,1.84-1.88,8.46,8.46,0,0,1,2.56-1c.95-.2,1.9-.35,2.86-.46s1.62-.27,2.36-.34a10.41,10.41,0,0,0,2-.34,2.92,2.92,0,0,0,1.36-.74,2,2,0,0,0,.5-1.5,2.36,2.36,0,0,0-.42-1.44,2.8,2.8,0,0,0-1-.86,4.53,4.53,0,0,0-1.38-.4,12.17,12.17,0,0,0-1.44-.1,5.76,5.76,0,0,0-3.16.8,3.16,3.16,0,0,0-1.4,2.48h-4.56a6.88,6.88,0,0,1,1-3.32,6.77,6.77,0,0,1,2.14-2.12,9,9,0,0,1,2.94-1.12,17.88,17.88,0,0,1,3.36-.32,14.28,14.28,0,0,1,3,.32,8.59,8.59,0,0,1,2.66,1,5.73,5.73,0,0,1,1.9,1.86,5.11,5.11,0,0,1,.72,2.78Zm-4.56-5.76a5.39,5.39,0,0,1-2.56.82c-1,.1-2,.24-3,.42a11,11,0,0,0-1.4.34,4.49,4.49,0,0,0-1.2.6,2.78,2.78,0,0,0-.82,1,3.46,3.46,0,0,0-.3,1.5,1.91,1.91,0,0,0,.44,1.28,3.25,3.25,0,0,0,1.06.82,5,5,0,0,0,1.36.42,8.51,8.51,0,0,0,1.34.12,7,7,0,0,0,1.64-.2,5.34,5.34,0,0,0,1.66-.68,4.21,4.21,0,0,0,1.3-1.22,3.06,3.06,0,0,0,.52-1.82Z" transform="translate(-40.3 -41.09)"/><path d="M462.26,279.3h3.44v-6.2h4.56v6.2h4.12v3.4h-4.12v11a10.93,10.93,0,0,0,.06,1.24,2.23,2.23,0,0,0,.28.88,1.37,1.37,0,0,0,.66.54,3.3,3.3,0,0,0,1.2.18c.32,0,.64,0,1,0a4.54,4.54,0,0,0,1-.14v3.52l-1.48.16a11.91,11.91,0,0,1-1.48.08,10,10,0,0,1-2.9-.34,3.87,3.87,0,0,1-1.72-1,3.49,3.49,0,0,1-.84-1.66,13.28,13.28,0,0,1-.26-2.28V282.7h-3.44Z" transform="translate(-40.3 -41.09)"/><path d="M477.78,271.42h4.56v4.32h-4.56Zm0,7.88h4.56V300h-4.56Z" transform="translate(-40.3 -41.09)"/><path d="M496.78,300.54a11.24,11.24,0,0,1-4.42-.82,9.43,9.43,0,0,1-3.28-2.26,9.71,9.71,0,0,1-2-3.44,14.05,14.05,0,0,1,0-8.76,9.79,9.79,0,0,1,2-3.44,9.56,9.56,0,0,1,3.28-2.26,12.32,12.32,0,0,1,8.84,0,9.38,9.38,0,0,1,3.28,2.26,9.5,9.5,0,0,1,2,3.44,14.05,14.05,0,0,1,0,8.76,9.42,9.42,0,0,1-2,3.44,9.25,9.25,0,0,1-3.28,2.26A11.17,11.17,0,0,1,496.78,300.54Zm0-3.6a5.16,5.16,0,0,0,2.64-.64,5.39,5.39,0,0,0,1.84-1.68,7.13,7.13,0,0,0,1.06-2.34,10.27,10.27,0,0,0,.34-2.66,10.4,10.4,0,0,0-.34-2.64,6.94,6.94,0,0,0-1.06-2.34,5.65,5.65,0,0,0-1.84-1.66,5.27,5.27,0,0,0-2.64-.64,5.32,5.32,0,0,0-2.64.64,5.76,5.76,0,0,0-1.84,1.66,7.14,7.14,0,0,0-1.06,2.34,10.86,10.86,0,0,0-.34,2.64,10.72,10.72,0,0,0,.34,2.66,7.34,7.34,0,0,0,1.06,2.34,5.49,5.49,0,0,0,1.84,1.68A5.21,5.21,0,0,0,496.78,296.94Z" transform="translate(-40.3 -41.09)"/><path d="M511,279.3h4.32v3l.08.08a7.81,7.81,0,0,1,2.72-2.7,7.28,7.28,0,0,1,3.72-1,7.73,7.73,0,0,1,5.36,1.76,6.74,6.74,0,0,1,2,5.28V300h-4.56V287a5.63,5.63,0,0,0-1-3.54,3.79,3.79,0,0,0-3-1.1,5,5,0,0,0-2.08.42,4.62,4.62,0,0,0-1.56,1.16,5.74,5.74,0,0,0-1,1.74,6.25,6.25,0,0,0-.36,2.12V300H511Z" transform="translate(-40.3 -41.09)"/><path class="cls-3" d="M220.65,86.55v73.54H208.09V126.83H175.2v33.26H162.26V86.55h12.57v29.19h32.89V86.55Zm-71.32,73.54H136.76V86.55h12.57Zm-25.14,0h-13.3L78,106.13h-.37v54H65.43V86.55H78.74l33.26,54h.37V86.55h12.19v73.54Zm141.18-37-44.72-82H55.09A14.91,14.91,0,0,0,40.3,56.24V190.39a14.92,14.92,0,0,0,14.79,15.16H220.28Z" transform="translate(-40.3 -41.09)"/><path class="cls-4" d="M231.74,205.18l45.09-82.05-45.09-82h11.09c6.28,0,13.67,4.43,16.63,10L299,123.13,259.46,195.2c-3,5.54-10.35,10-16.63,10Z" transform="translate(-40.3 -41.09)"/><text class="cls-5" transform="translate(272.03 117.23)">NLM</text></g></g></g></svg>